DataType=double
version=3
OpenSimVersion=4.5-2023-11-26-efcdfd3eb
endheader
time	EMG01_right_gast_med	EMG02_right_glut_max	EMG03_left_gast_med	EMG04_left_glut_max	EMG05_right_glut_med	EMG06_right_bic_fem	EMG07_right_rect_fem	EMG08_right_vast_lat	EMG09_right_vast_med	EMG10_right_tens_fasc_lat	EMG11_left_glut_med	EMG12_left_bic_fem	EMG13_left_rect_fem	EMG14_left_vast_lat	EMG15_left_vast_med	EMG16_left_tens_fasc_lat
0	1.374503861397739	-2.2641861414251	10.58336776863392	-4.349648668949877	0.287504169871356	3.673812521580177	-0.1237759010874241	1.605360736271325	0.2510544892296536	-4.096963392745394	0.03805620177521963	0.7081933484385006	1.273693784802595	-0.03028087651350293	-3.110495151532732	-1.178762540497831
0.01	1.771195391285711	-0.2096264655359037	36.12827654193889	-3.550622018030291	5.007943019855738	7.322078349023906	0.4979322165765829	3.07033523019532	2.002150734313756	-3.292750276093175	0.7767763698240823	3.027541380680401	1.917879478068224	0.4474399721067663	-2.088518925973431	-0.4216450681385626
0.02	2.134285492547696	1.916643019211748	60.32963957648651	-2.670334139551101	9.987104091026371	11.01072362099808	1.148124657935384	4.532275850890765	3.903256026610622	-2.383422361179985	1.517283685752423	5.204629449946086	2.564278254399334	0.9283271734728146	-1.036585824248058	0.352256389380059
0.03	2.465937606705635	4.110511870309145	83.05493494471031	-1.708337864864524	15.2002426434191	14.71032788492392	1.824731813060375	5.9826442622879	5.947464270367317	-1.364896565107605	2.252039461409037	7.227965691463859	3.206713122390166	1.408814004271288	0.04165220510970698	1.139568552292617
0.04	2.76942066856045	6.367365504632906	104.1849006612626	-0.6640578152831823	20.61996667779387	18.3911970417474	2.525286349268259	7.412764263820929	8.126095199766162	-0.2339114208814552	2.973648786664823	9.087474686364061	3.838968543951975	1.885382351275694	1.142777967249509	1.937617310470475
0.05	3.049167822164207	8.682064202099092	123.6148761818067	0.4632384209277455	26.21643737698584	22.02380009673466	3.246918913649443	8.813912887506048	10.42870825571227	1.01184934754715	3.674986081666262	10.77461117439782	4.454885671645711	2.354617573610176	2.263672126289148	2.744547966808971
0.06	3.310824858780598	11.04891529599769	141.2559817746954	1.674439522835705	31.9575881417826	25.57917925169641	3.986358744960081	10.17741379575106	12.84313939069952	2.373634607599293	4.349311511599724	12.28245779918439	5.048456238769789	2.813258806752395	3.401551755255529	3.559424222027799
0.07000000000000001	3.561286941036586	13.46163958987225	157.0361140274399	2.970557869185827	37.80936061823019	29.02932512175473	4.739939919762612	11.49473179924708	15.35556237923761	3.851507562112587	4.990375583324386	13.60580534780791	5.613913616207328	3.25824378399155	4.553982110196574	4.382302295792972
0.08	3.808722287925715	15.9133340562007	170.9007363573442	4.352664799112809	43.7359568281711	32.34751245913692	5.503613985719765	12.75756737020906	17.95057599042575	5.444234459273392	5.592509625208259	14.74121400844021	6.145819730178889	3.686747495665475	5.718861022084194	5.214277120545811
0.09	4.062581606188027	18.39643359388342	182.8134456963265	5.821795047706763	49.70010722369776	35.50859497393628	6.272969667582692	13.95795015396743	20.61131807950753	7.149183536754151	6.15070025404379	15.68705425477373	6.639146631133881	4.096214124133848	6.894376706168357	6.057498226322288
0.1	4.333592116637783	20.90267499626212	192.7563012584772	7.37882336749773	55.66335496926887	38.48926010801157	7.043260198880063	15.08833071183967	23.31960727176778	8.962237567309272	6.660646441587322	16.44352607516184	7.089351593036874	4.484381774092922	8.078941020839313	6.915153830115296
0.11	4.633735023866794	23.42306633441425	200.7299073692673	9.02431782979477	61.58635696815639	41.26824598049497	7.809438669422454	16.14166998263763	26.05611240247904	10.87772332401321	7.118798459196324	17.01265544462338	7.492444768424251	4.849299672789299	9.271101357569659	7.791422628358275
0.12	4.976205233734143	25.94786480457356	206.7532472469963	10.75837544547009	67.42920210818721	43.82652372150599	8.566201606602238	17.11152610416385	28.8005492361119	12.88836114374701	7.522378788275422	17.39826728637561	7.845048611165618	5.189337831985306	10.46943536021748	8.691393696879715
0.13	5.375352057625504	28.4665658911632	210.8632671352317	12.58044658381223	73.15174695839357	46.14744923330414	9.308040839139689	17.99213819609983	31.53190324426341	14.9852375917542	7.869385930985161	17.60593463524896	8.144448416497264	5.503189622886267	11.67243340229207	9.620955709940235
0.14	5.846599565774057	30.96790655327773	213.1142116273715	14.4891552977294	78.71396890415637	48.21688876725255	10.02930353066802	18.77850645590657	34.22867637516511	17.15780400393696	8.158582761520497	17.64290406588247	8.388633358002439	5.789868159288688	12.87837418846873	10.58665745408456
0.15	6.406345184430059	33.43988501024529	213.5767137947003	16.48212306466717	84.07633676656084	50.02332241395862	10.72426010148127	19.46646750730154	36.86915478519435	19.39390334549912	8.38947148718502	17.51799762339673	8.576327347752134	6.048697648139159	14.08519911565304	11.5955423203565
0.16	7.071835116315579	35.86979950475614	212.3366495547248	18.55580354738748	89.20019927438231	51.55792884228003	11.38717954072559	20.05276343404408	39.43169346732917	21.67982737736139	8.562257462378868	17.24149182435006	8.707008958637239	6.279300908357628	15.29039115435563	12.65496006559945
0.17	7.861015227289473	38.24430813119432	209.4937749266854	20.70533576852247	94.04819163744655	52.81465357680982	12.01241132301366	20.53510242786431	41.89501267850793	24.00040564321899	8.677804144280255	16.82497516269125	8.780919552870253	6.481584143547608	16.49086391725087	13.77235964856137
0.18	8.79235614801738	40.54951139330785	205.1601753899928	22.92442263893815	98.58465904806873	53.79026182752637	12.59447280445688	20.91220861806123	44.23850006649809	26.33912730684073	8.737581464975229	16.28118690644044	8.799058714282504	6.655719882652315	17.68286625834153	14.95506745496895
0.19	9.884651413300107	42.77105850416821	199.4585642393884	25.20524112173388	102.7760930561381	54.48437538074479	13.12814062538243	21.18385849991269	46.44251144791514	28.67829631444902	8.743609800114188	15.62384129744515	8.763166263198567	6.802128875653957	18.86190726760986	16.21005584187046
0.2	11.15678751960876	44.89427749662994	192.5204684393583	27.53838947570436	106.5915731424897	54.89949128653745	13.60854430010651	21.35090133392884	48.48866239413459	30.99921966213104	8.698401534986779	14.86744204671496	8.675690748914482	6.921461716808407	20.02270596230404	17.5437076383695
0.21	12.62748505956992	46.90432806155075	184.4843372812818	29.9128760485594	110.003202613422	55.04097805471096	14.03125980490307	21.41526083408178	50.36010228122907	33.28242769788087	8.604902013609692	14.02709211048053	8.53974530826375	7.014581054562031	21.15916936408669	18.96158282318413
0.22	14.31501095257177	48.78637487975022	175.4936053656526	32.31615301442073	112.9865261467382	54.91704318202756	14.39240058691899	21.37991555493298	52.04176233912986	35.50792441687533	8.466431437196496	13.11830334512987	8.359052748610333	7.082545350990365	22.26440200371628	20.46819384362516
0.23	16.2368633472932	50.5257782116218	165.6947398634544	34.73419726360478	115.5209159962836	54.53866494269677	14.68870307632707	21.24885601370138	53.52056964625029	37.65546469115112	8.286629037398567	12.15681003688976	8.137882266624162	7.126595186626845	23.33074919891473	22.0667959163139
0.24	18.4094326392732	52.10829771965571	155.2353026488627	37.15163936701997	117.589913989396	53.91948233555492	14.91760357265168	21.02701800452239	54.7856204291809	39.70485434634008	8.069400562598334	11.15838962626534	7.880980293365425	7.148143031761272	24.34987568530479	23.75919827251906
0.25	20.84764363254817	53.52030499670875	144.2620595752671	39.55194024040045	119.1815163241731	53.07563977653131	15.0773033110902	20.72019359876617	55.8283089026318	41.6362678860495	7.818869795492487	10.13869324204619	7.593497759182608	7.148767227868951	25.31288033441406	25.54560180582635
0.26	23.56458491631019	54.74900004938806	132.9191704352394	41.91761390385599	120.288388808959	52.02558621019622	15.16681860659609	20.33492336796283	56.64241171337087	43.43057740041631	7.539334506434317	9.113087958764586	7.280915786161511	7.130210664541225	26.21044675941133	27.42446801531507
0.27	26.57113220095114	55.78262686962029	121.3464924654521	44.23049355343002	120.9080033058521	50.78983043700551	15.18601339865954	19.87837473390777	57.2241312664864	45.06968489842556	7.235226962218014	8.0965120497531	6.948971514542754	7.094384330587324	27.03302857509758	29.3924235463767
0.28	29.87557294192801	56.61068311185846	109.6780269065425	46.47203699023358	121.0426918889634	49.3906554748143	15.13561252171151	19.35821174984633	57.57210253334805	46.53684928208686	6.911078847623374	7.103343970389715	6.603585466219041	7.043375598291771	27.77106693496884	31.44420403109376
0.29	33.48324021489722	57.22411887991186	98.04053268053705	48.62366626387013	120.6996219007226	47.85179543087699	15.01719548443958	18.78246126646338	57.68736737695887	47.81699871228036	6.571490219284716	6.147285374932854	6.25079154965835	6.979460783440228	28.41523672411301	33.57264027831226
0.3	37.39616452195926	57.61551975047938	86.5523249551196	50.66713507395641	119.8907006776284	46.19807929922406	14.83317190743612	18.15937976011622	57.57331889886247	48.89701925006675	6.221101939694248	5.241258118086271	5.89667052223338	6.905121204180636	28.95671647726702	35.76868906882419
0.31	41.61275294796867	57.77926924958577	75.32227027504344	52.58491585357408	118.6324219864706	44.45504758019851	14.58674061754518	17.49732437592732	57.23561686324478	49.76601133630412	5.864570975062462	4.397314902223391	5.547287454767041	6.823061642092624	29.38747577652514	38.02150983649202
0.32	46.12750563184957	57.71168606086708	64.44898447979175	54.36059651621744	116.9456670009555	42.64854951033705	14.28183476101568	16.80463102584262	56.68207459269715	50.41550695360524	5.506547971336968	3.626563004714322	5.208633500878573	6.736229827375098	29.70057261770492	40.31858738544982
0.33	50.93077960835763	57.41113168989037	54.02023475092718	55.97927492806274	114.8554716791557	40.80433040847458	13.92305538753948	16.08950165115897	55.92251804733877	50.8396421887115	5.151656594254432	2.939100345664568	4.886572072980216	6.647835369396485	29.89045202207381	42.64589948346051
